<?xml version="1.0" encoding="UTF-8" standalone="no"?>
<!DOCTYPE svg PUBLIC "-//W3C//DTD SVG 1.1//EN"
 "http://www.w3.org/Graphics/SVG/1.1/DTD/svg11.dtd">
<!-- Generated by graphviz version 2.43.0 (0)
 -->
<!-- Title: %3 Pages: 1 -->
<svg width="494pt" height="836pt"
 viewBox="0.00 0.00 494.00 836.00" xmlns="http://www.w3.org/2000/svg" xmlns:xlink="http://www.w3.org/1999/xlink">
<g id="graph0" class="graph" transform="scale(1 1) rotate(0) translate(4 832)">
<title>%3</title>
<polygon fill="white" stroke="transparent" points="-4,4 -4,-832 490,-832 490,4 -4,4"/>
<!-- 0x55be7051b2c0 -->
<g id="node1" class="node">
<title>0x55be7051b2c0</title>
<ellipse fill="red" stroke="black" cx="279" cy="-810" rx="27" ry="18"/>
<text text-anchor="middle" x="279" y="-806.3" font-family="Times,serif" font-size="14.00" fill="white">.</text>
</g>
<!-- 0x55be7051c180 -->
<g id="node2" class="node">
<title>0x55be7051c180</title>
<ellipse fill="black" stroke="black" cx="45" cy="-738" rx="27" ry="18"/>
<text text-anchor="middle" x="45" y="-734.3" font-family="Times,serif" font-size="14.00" fill="white">a</text>
</g>
<!-- 0x55be7051b2c0&#45;&gt;0x55be7051c180 -->
<g id="edge1" class="edge">
<title>0x55be7051b2c0&#45;&gt;0x55be7051c180</title>
<path fill="none" stroke="black" d="M254.79,-802.03C220.19,-792.03 154.63,-772.94 99,-756 92.37,-753.98 85.29,-751.78 78.52,-749.66"/>
<polygon fill="black" stroke="black" points="79.48,-746.29 68.89,-746.63 77.38,-752.97 79.48,-746.29"/>
</g>
<!-- 0x55be70520990 -->
<g id="node13" class="node">
<title>0x55be70520990</title>
<ellipse fill="black" stroke="black" cx="135" cy="-738" rx="27" ry="18"/>
<text text-anchor="middle" x="135" y="-734.3" font-family="Times,serif" font-size="14.00" fill="white">b</text>
</g>
<!-- 0x55be7051b2c0&#45;&gt;0x55be70520990 -->
<g id="edge12" class="edge">
<title>0x55be7051b2c0&#45;&gt;0x55be70520990</title>
<path fill="none" stroke="black" d="M257.75,-798.67C233.4,-786.83 193.28,-767.33 165.57,-753.86"/>
<polygon fill="black" stroke="black" points="166.86,-750.6 156.33,-749.37 163.8,-756.89 166.86,-750.6"/>
</g>
<!-- 0x55be7051bf80 -->
<g id="node19" class="node">
<title>0x55be7051bf80</title>
<ellipse fill="black" stroke="black" cx="243" cy="-738" rx="27" ry="18"/>
<text text-anchor="middle" x="243" y="-734.3" font-family="Times,serif" font-size="14.00" fill="white">f</text>
</g>
<!-- 0x55be7051b2c0&#45;&gt;0x55be7051bf80 -->
<g id="edge18" class="edge">
<title>0x55be7051b2c0&#45;&gt;0x55be7051bf80</title>
<path fill="none" stroke="black" d="M270.65,-792.76C266.29,-784.28 260.85,-773.71 255.96,-764.2"/>
<polygon fill="black" stroke="black" points="258.99,-762.44 251.3,-755.15 252.77,-765.64 258.99,-762.44"/>
</g>
<!-- 0x55be70522120 -->
<g id="node26" class="node">
<title>0x55be70522120</title>
<ellipse fill="black" stroke="black" cx="315" cy="-738" rx="27" ry="18"/>
<text text-anchor="middle" x="315" y="-734.3" font-family="Times,serif" font-size="14.00" fill="white">h</text>
</g>
<!-- 0x55be7051b2c0&#45;&gt;0x55be70522120 -->
<g id="edge25" class="edge">
<title>0x55be7051b2c0&#45;&gt;0x55be70522120</title>
<path fill="none" stroke="black" d="M287.35,-792.76C291.71,-784.28 297.15,-773.71 302.04,-764.2"/>
<polygon fill="black" stroke="black" points="305.23,-765.64 306.7,-755.15 299.01,-762.44 305.23,-765.64"/>
</g>
<!-- 0x55be7051bf00 -->
<g id="node30" class="node">
<title>0x55be7051bf00</title>
<ellipse fill="black" stroke="black" cx="387" cy="-738" rx="27" ry="18"/>
<text text-anchor="middle" x="387" y="-734.3" font-family="Times,serif" font-size="14.00" fill="white">n</text>
</g>
<!-- 0x55be7051b2c0&#45;&gt;0x55be7051bf00 -->
<g id="edge29" class="edge">
<title>0x55be7051b2c0&#45;&gt;0x55be7051bf00</title>
<path fill="none" stroke="black" d="M297.81,-796.81C315,-785.67 340.62,-769.06 359.99,-756.5"/>
<polygon fill="black" stroke="black" points="361.92,-759.43 368.4,-751.05 358.11,-753.56 361.92,-759.43"/>
</g>
<!-- 0x55be70521810 -->
<g id="node34" class="node">
<title>0x55be70521810</title>
<ellipse fill="black" stroke="black" cx="459" cy="-738" rx="27" ry="18"/>
<text text-anchor="middle" x="459" y="-734.3" font-family="Times,serif" font-size="14.00" fill="white">s</text>
</g>
<!-- 0x55be7051b2c0&#45;&gt;0x55be70521810 -->
<g id="edge33" class="edge">
<title>0x55be7051b2c0&#45;&gt;0x55be70521810</title>
<path fill="none" stroke="black" d="M302.69,-801C331.44,-791.13 381.23,-773.51 423,-756 424.82,-755.24 426.68,-754.44 428.54,-753.61"/>
<polygon fill="black" stroke="black" points="430.17,-756.71 437.82,-749.38 427.27,-750.35 430.17,-756.71"/>
</g>
<!-- 0x55be7051c8d0 -->
<g id="node3" class="node">
<title>0x55be7051c8d0</title>
<ellipse fill="black" stroke="black" cx="27" cy="-666" rx="27" ry="18"/>
<text text-anchor="middle" x="27" y="-662.3" font-family="Times,serif" font-size="14.00" fill="white">p</text>
</g>
<!-- 0x55be7051c180&#45;&gt;0x55be7051c8d0 -->
<g id="edge2" class="edge">
<title>0x55be7051c180&#45;&gt;0x55be7051c8d0</title>
<path fill="none" stroke="black" d="M40.64,-720.05C38.61,-712.14 36.14,-702.54 33.86,-693.69"/>
<polygon fill="black" stroke="black" points="37.2,-692.6 31.32,-683.79 30.42,-694.35 37.2,-692.6"/>
</g>
<!-- 0x55be7051c530 -->
<g id="node4" class="node">
<title>0x55be7051c530</title>
<ellipse fill="black" stroke="black" cx="27" cy="-594" rx="27" ry="18"/>
<text text-anchor="middle" x="27" y="-590.3" font-family="Times,serif" font-size="14.00" fill="white">p</text>
</g>
<!-- 0x55be7051c8d0&#45;&gt;0x55be7051c530 -->
<g id="edge3" class="edge">
<title>0x55be7051c8d0&#45;&gt;0x55be7051c530</title>
<path fill="none" stroke="black" d="M27,-647.7C27,-639.98 27,-630.71 27,-622.11"/>
<polygon fill="black" stroke="black" points="30.5,-622.1 27,-612.1 23.5,-622.1 30.5,-622.1"/>
</g>
<!-- 0x55be7051c700 -->
<g id="node5" class="node">
<title>0x55be7051c700</title>
<ellipse fill="black" stroke="black" cx="27" cy="-522" rx="27" ry="18"/>
<text text-anchor="middle" x="27" y="-518.3" font-family="Times,serif" font-size="14.00" fill="white">l</text>
</g>
<!-- 0x55be7051c530&#45;&gt;0x55be7051c700 -->
<g id="edge4" class="edge">
<title>0x55be7051c530&#45;&gt;0x55be7051c700</title>
<path fill="none" stroke="black" d="M27,-575.7C27,-567.98 27,-558.71 27,-550.11"/>
<polygon fill="black" stroke="black" points="30.5,-550.1 27,-540.1 23.5,-550.1 30.5,-550.1"/>
</g>
<!-- 0x55be7051caa0 -->
<g id="node6" class="node">
<title>0x55be7051caa0</title>
<ellipse fill="black" stroke="black" cx="27" cy="-450" rx="27" ry="18"/>
<text text-anchor="middle" x="27" y="-446.3" font-family="Times,serif" font-size="14.00" fill="white">i</text>
</g>
<!-- 0x55be7051c700&#45;&gt;0x55be7051caa0 -->
<g id="edge5" class="edge">
<title>0x55be7051c700&#45;&gt;0x55be7051caa0</title>
<path fill="none" stroke="black" d="M27,-503.7C27,-495.98 27,-486.71 27,-478.11"/>
<polygon fill="black" stroke="black" points="30.5,-478.1 27,-468.1 23.5,-478.1 30.5,-478.1"/>
</g>
<!-- 0x55be7051cc70 -->
<g id="node7" class="node">
<title>0x55be7051cc70</title>
<ellipse fill="black" stroke="black" cx="27" cy="-378" rx="27" ry="18"/>
<text text-anchor="middle" x="27" y="-374.3" font-family="Times,serif" font-size="14.00" fill="white">c</text>
</g>
<!-- 0x55be7051caa0&#45;&gt;0x55be7051cc70 -->
<g id="edge6" class="edge">
<title>0x55be7051caa0&#45;&gt;0x55be7051cc70</title>
<path fill="none" stroke="black" d="M27,-431.7C27,-423.98 27,-414.71 27,-406.11"/>
<polygon fill="black" stroke="black" points="30.5,-406.1 27,-396.1 23.5,-406.1 30.5,-406.1"/>
</g>
<!-- 0x55be7051bdc0 -->
<g id="node8" class="node">
<title>0x55be7051bdc0</title>
<ellipse fill="black" stroke="black" cx="27" cy="-306" rx="27" ry="18"/>
<text text-anchor="middle" x="27" y="-302.3" font-family="Times,serif" font-size="14.00" fill="white">a</text>
</g>
<!-- 0x55be7051cc70&#45;&gt;0x55be7051bdc0 -->
<g id="edge7" class="edge">
<title>0x55be7051cc70&#45;&gt;0x55be7051bdc0</title>
<path fill="none" stroke="black" d="M27,-359.7C27,-351.98 27,-342.71 27,-334.11"/>
<polygon fill="black" stroke="black" points="30.5,-334.1 27,-324.1 23.5,-334.1 30.5,-334.1"/>
</g>
<!-- 0x55be7051be60 -->
<g id="node9" class="node">
<title>0x55be7051be60</title>
<ellipse fill="black" stroke="black" cx="27" cy="-234" rx="27" ry="18"/>
<text text-anchor="middle" x="27" y="-230.3" font-family="Times,serif" font-size="14.00" fill="white">t</text>
</g>
<!-- 0x55be7051bdc0&#45;&gt;0x55be7051be60 -->
<g id="edge8" class="edge">
<title>0x55be7051bdc0&#45;&gt;0x55be7051be60</title>
<path fill="none" stroke="black" d="M27,-287.7C27,-279.98 27,-270.71 27,-262.11"/>
<polygon fill="black" stroke="black" points="30.5,-262.1 27,-252.1 23.5,-262.1 30.5,-262.1"/>
</g>
<!-- 0x55be7051be80 -->
<g id="node10" class="node">
<title>0x55be7051be80</title>
<ellipse fill="black" stroke="black" cx="27" cy="-162" rx="27" ry="18"/>
<text text-anchor="middle" x="27" y="-158.3" font-family="Times,serif" font-size="14.00" fill="white">i</text>
</g>
<!-- 0x55be7051be60&#45;&gt;0x55be7051be80 -->
<g id="edge9" class="edge">
<title>0x55be7051be60&#45;&gt;0x55be7051be80</title>
<path fill="none" stroke="black" d="M27,-215.7C27,-207.98 27,-198.71 27,-190.11"/>
<polygon fill="black" stroke="black" points="30.5,-190.1 27,-180.1 23.5,-190.1 30.5,-190.1"/>
</g>
<!-- 0x55be7051bea0 -->
<g id="node11" class="node">
<title>0x55be7051bea0</title>
<ellipse fill="black" stroke="black" cx="27" cy="-90" rx="27" ry="18"/>
<text text-anchor="middle" x="27" y="-86.3" font-family="Times,serif" font-size="14.00" fill="white">o</text>
</g>
<!-- 0x55be7051be80&#45;&gt;0x55be7051bea0 -->
<g id="edge10" class="edge">
<title>0x55be7051be80&#45;&gt;0x55be7051bea0</title>
<path fill="none" stroke="black" d="M27,-143.7C27,-135.98 27,-126.71 27,-118.11"/>
<polygon fill="black" stroke="black" points="30.5,-118.1 27,-108.1 23.5,-118.1 30.5,-118.1"/>
</g>
<!-- 0x55be7051bec0 -->
<g id="node12" class="node">
<title>0x55be7051bec0</title>
<ellipse fill="green" stroke="black" cx="27" cy="-18" rx="27" ry="18"/>
<text text-anchor="middle" x="27" y="-14.3" font-family="Times,serif" font-size="14.00" fill="white">n</text>
</g>
<!-- 0x55be7051bea0&#45;&gt;0x55be7051bec0 -->
<g id="edge11" class="edge">
<title>0x55be7051bea0&#45;&gt;0x55be7051bec0</title>
<path fill="none" stroke="black" d="M27,-71.7C27,-63.98 27,-54.71 27,-46.11"/>
<polygon fill="black" stroke="black" points="30.5,-46.1 27,-36.1 23.5,-46.1 30.5,-46.1"/>
</g>
<!-- 0x55be70520b60 -->
<g id="node14" class="node">
<title>0x55be70520b60</title>
<ellipse fill="black" stroke="black" cx="99" cy="-666" rx="27" ry="18"/>
<text text-anchor="middle" x="99" y="-662.3" font-family="Times,serif" font-size="14.00" fill="white">a</text>
</g>
<!-- 0x55be70520990&#45;&gt;0x55be70520b60 -->
<g id="edge13" class="edge">
<title>0x55be70520990&#45;&gt;0x55be70520b60</title>
<path fill="none" stroke="black" d="M126.65,-720.76C122.29,-712.28 116.85,-701.71 111.96,-692.2"/>
<polygon fill="black" stroke="black" points="114.99,-690.44 107.3,-683.15 108.77,-693.64 114.99,-690.44"/>
</g>
<!-- 0x55be705210d0 -->
<g id="node15" class="node">
<title>0x55be705210d0</title>
<ellipse fill="black" stroke="black" cx="99" cy="-594" rx="27" ry="18"/>
<text text-anchor="middle" x="99" y="-590.3" font-family="Times,serif" font-size="14.00" fill="white">n</text>
</g>
<!-- 0x55be70520b60&#45;&gt;0x55be705210d0 -->
<g id="edge14" class="edge">
<title>0x55be70520b60&#45;&gt;0x55be705210d0</title>
<path fill="none" stroke="black" d="M99,-647.7C99,-639.98 99,-630.71 99,-622.11"/>
<polygon fill="black" stroke="black" points="102.5,-622.1 99,-612.1 95.5,-622.1 102.5,-622.1"/>
</g>
<!-- 0x55be705212a0 -->
<g id="node16" class="node">
<title>0x55be705212a0</title>
<ellipse fill="black" stroke="black" cx="99" cy="-522" rx="27" ry="18"/>
<text text-anchor="middle" x="99" y="-518.3" font-family="Times,serif" font-size="14.00" fill="white">a</text>
</g>
<!-- 0x55be705210d0&#45;&gt;0x55be705212a0 -->
<g id="edge15" class="edge">
<title>0x55be705210d0&#45;&gt;0x55be705212a0</title>
<path fill="none" stroke="black" d="M99,-575.7C99,-567.98 99,-558.71 99,-550.11"/>
<polygon fill="black" stroke="black" points="102.5,-550.1 99,-540.1 95.5,-550.1 102.5,-550.1"/>
</g>
<!-- 0x55be70521470 -->
<g id="node17" class="node">
<title>0x55be70521470</title>
<ellipse fill="black" stroke="black" cx="99" cy="-450" rx="27" ry="18"/>
<text text-anchor="middle" x="99" y="-446.3" font-family="Times,serif" font-size="14.00" fill="white">n</text>
</g>
<!-- 0x55be705212a0&#45;&gt;0x55be70521470 -->
<g id="edge16" class="edge">
<title>0x55be705212a0&#45;&gt;0x55be70521470</title>
<path fill="none" stroke="black" d="M99,-503.7C99,-495.98 99,-486.71 99,-478.11"/>
<polygon fill="black" stroke="black" points="102.5,-478.1 99,-468.1 95.5,-478.1 102.5,-478.1"/>
</g>
<!-- 0x55be70521640 -->
<g id="node18" class="node">
<title>0x55be70521640</title>
<ellipse fill="green" stroke="black" cx="99" cy="-378" rx="27" ry="18"/>
<text text-anchor="middle" x="99" y="-374.3" font-family="Times,serif" font-size="14.00" fill="white">a</text>
</g>
<!-- 0x55be70521470&#45;&gt;0x55be70521640 -->
<g id="edge17" class="edge">
<title>0x55be70521470&#45;&gt;0x55be70521640</title>
<path fill="none" stroke="black" d="M99,-431.7C99,-423.98 99,-414.71 99,-406.11"/>
<polygon fill="black" stroke="black" points="102.5,-406.1 99,-396.1 95.5,-406.1 102.5,-406.1"/>
</g>
<!-- 0x55be7051ce40 -->
<g id="node20" class="node">
<title>0x55be7051ce40</title>
<ellipse fill="black" stroke="black" cx="171" cy="-666" rx="27" ry="18"/>
<text text-anchor="middle" x="171" y="-662.3" font-family="Times,serif" font-size="14.00" fill="white">a</text>
</g>
<!-- 0x55be7051bf80&#45;&gt;0x55be7051ce40 -->
<g id="edge19" class="edge">
<title>0x55be7051bf80&#45;&gt;0x55be7051ce40</title>
<path fill="none" stroke="black" d="M228.43,-722.83C218.25,-712.94 204.48,-699.55 192.97,-688.36"/>
<polygon fill="black" stroke="black" points="195.41,-685.85 185.8,-681.38 190.53,-690.87 195.41,-685.85"/>
</g>
<!-- 0x55be7051fce0 -->
<g id="node23" class="node">
<title>0x55be7051fce0</title>
<ellipse fill="black" stroke="black" cx="243" cy="-666" rx="27" ry="18"/>
<text text-anchor="middle" x="243" y="-662.3" font-family="Times,serif" font-size="14.00" fill="white">e</text>
</g>
<!-- 0x55be7051bf80&#45;&gt;0x55be7051fce0 -->
<g id="edge22" class="edge">
<title>0x55be7051bf80&#45;&gt;0x55be7051fce0</title>
<path fill="none" stroke="black" d="M243,-719.7C243,-711.98 243,-702.71 243,-694.11"/>
<polygon fill="black" stroke="black" points="246.5,-694.1 243,-684.1 239.5,-694.1 246.5,-694.1"/>
</g>
<!-- 0x55be7051d010 -->
<g id="node21" class="node">
<title>0x55be7051d010</title>
<ellipse fill="black" stroke="black" cx="171" cy="-594" rx="27" ry="18"/>
<text text-anchor="middle" x="171" y="-590.3" font-family="Times,serif" font-size="14.00" fill="white">c</text>
</g>
<!-- 0x55be7051ce40&#45;&gt;0x55be7051d010 -->
<g id="edge20" class="edge">
<title>0x55be7051ce40&#45;&gt;0x55be7051d010</title>
<path fill="none" stroke="black" d="M171,-647.7C171,-639.98 171,-630.71 171,-622.11"/>
<polygon fill="black" stroke="black" points="174.5,-622.1 171,-612.1 167.5,-622.1 174.5,-622.1"/>
</g>
<!-- 0x55be7051d1e0 -->
<g id="node22" class="node">
<title>0x55be7051d1e0</title>
<ellipse fill="green" stroke="black" cx="171" cy="-522" rx="27" ry="18"/>
<text text-anchor="middle" x="171" y="-518.3" font-family="Times,serif" font-size="14.00" fill="white">e</text>
</g>
<!-- 0x55be7051d010&#45;&gt;0x55be7051d1e0 -->
<g id="edge21" class="edge">
<title>0x55be7051d010&#45;&gt;0x55be7051d1e0</title>
<path fill="none" stroke="black" d="M171,-575.7C171,-567.98 171,-558.71 171,-550.11"/>
<polygon fill="black" stroke="black" points="174.5,-550.1 171,-540.1 167.5,-550.1 174.5,-550.1"/>
</g>
<!-- 0x55be7051d3b0 -->
<g id="node24" class="node">
<title>0x55be7051d3b0</title>
<ellipse fill="black" stroke="black" cx="243" cy="-594" rx="27" ry="18"/>
<text text-anchor="middle" x="243" y="-590.3" font-family="Times,serif" font-size="14.00" fill="white">a</text>
</g>
<!-- 0x55be7051fce0&#45;&gt;0x55be7051d3b0 -->
<g id="edge23" class="edge">
<title>0x55be7051fce0&#45;&gt;0x55be7051d3b0</title>
<path fill="none" stroke="black" d="M243,-647.7C243,-639.98 243,-630.71 243,-622.11"/>
<polygon fill="black" stroke="black" points="246.5,-622.1 243,-612.1 239.5,-622.1 246.5,-622.1"/>
</g>
<!-- 0x55be7051d580 -->
<g id="node25" class="node">
<title>0x55be7051d580</title>
<ellipse fill="green" stroke="black" cx="243" cy="-522" rx="27" ry="18"/>
<text text-anchor="middle" x="243" y="-518.3" font-family="Times,serif" font-size="14.00" fill="white">r</text>
</g>
<!-- 0x55be7051d3b0&#45;&gt;0x55be7051d580 -->
<g id="edge24" class="edge">
<title>0x55be7051d3b0&#45;&gt;0x55be7051d580</title>
<path fill="none" stroke="black" d="M243,-575.7C243,-567.98 243,-558.71 243,-550.11"/>
<polygon fill="black" stroke="black" points="246.5,-550.1 243,-540.1 239.5,-550.1 246.5,-550.1"/>
</g>
<!-- 0x55be705222f0 -->
<g id="node27" class="node">
<title>0x55be705222f0</title>
<ellipse fill="black" stroke="black" cx="315" cy="-666" rx="27" ry="18"/>
<text text-anchor="middle" x="315" y="-662.3" font-family="Times,serif" font-size="14.00" fill="white">e</text>
</g>
<!-- 0x55be70522120&#45;&gt;0x55be705222f0 -->
<g id="edge26" class="edge">
<title>0x55be70522120&#45;&gt;0x55be705222f0</title>
<path fill="none" stroke="black" d="M315,-719.7C315,-711.98 315,-702.71 315,-694.11"/>
<polygon fill="black" stroke="black" points="318.5,-694.1 315,-684.1 311.5,-694.1 318.5,-694.1"/>
</g>
<!-- 0x55be705224c0 -->
<g id="node28" class="node">
<title>0x55be705224c0</title>
<ellipse fill="black" stroke="black" cx="315" cy="-594" rx="27" ry="18"/>
<text text-anchor="middle" x="315" y="-590.3" font-family="Times,serif" font-size="14.00" fill="white">a</text>
</g>
<!-- 0x55be705222f0&#45;&gt;0x55be705224c0 -->
<g id="edge27" class="edge">
<title>0x55be705222f0&#45;&gt;0x55be705224c0</title>
<path fill="none" stroke="black" d="M315,-647.7C315,-639.98 315,-630.71 315,-622.11"/>
<polygon fill="black" stroke="black" points="318.5,-622.1 315,-612.1 311.5,-622.1 318.5,-622.1"/>
</g>
<!-- 0x55be70522690 -->
<g id="node29" class="node">
<title>0x55be70522690</title>
<ellipse fill="green" stroke="black" cx="315" cy="-522" rx="27" ry="18"/>
<text text-anchor="middle" x="315" y="-518.3" font-family="Times,serif" font-size="14.00" fill="white">p</text>
</g>
<!-- 0x55be705224c0&#45;&gt;0x55be70522690 -->
<g id="edge28" class="edge">
<title>0x55be705224c0&#45;&gt;0x55be70522690</title>
<path fill="none" stroke="black" d="M315,-575.7C315,-567.98 315,-558.71 315,-550.11"/>
<polygon fill="black" stroke="black" points="318.5,-550.1 315,-540.1 311.5,-550.1 318.5,-550.1"/>
</g>
<!-- 0x55be7051bf20 -->
<g id="node31" class="node">
<title>0x55be7051bf20</title>
<ellipse fill="black" stroke="black" cx="387" cy="-666" rx="27" ry="18"/>
<text text-anchor="middle" x="387" y="-662.3" font-family="Times,serif" font-size="14.00" fill="white">e</text>
</g>
<!-- 0x55be7051bf00&#45;&gt;0x55be7051bf20 -->
<g id="edge30" class="edge">
<title>0x55be7051bf00&#45;&gt;0x55be7051bf20</title>
<path fill="none" stroke="black" d="M387,-719.7C387,-711.98 387,-702.71 387,-694.11"/>
<polygon fill="black" stroke="black" points="390.5,-694.1 387,-684.1 383.5,-694.1 390.5,-694.1"/>
</g>
<!-- 0x55be7051bf40 -->
<g id="node32" class="node">
<title>0x55be7051bf40</title>
<ellipse fill="green" stroke="black" cx="387" cy="-594" rx="27" ry="18"/>
<text text-anchor="middle" x="387" y="-590.3" font-family="Times,serif" font-size="14.00" fill="white">w</text>
</g>
<!-- 0x55be7051bf20&#45;&gt;0x55be7051bf40 -->
<g id="edge31" class="edge">
<title>0x55be7051bf20&#45;&gt;0x55be7051bf40</title>
<path fill="none" stroke="black" d="M387,-647.7C387,-639.98 387,-630.71 387,-622.11"/>
<polygon fill="black" stroke="black" points="390.5,-622.1 387,-612.1 383.5,-622.1 390.5,-622.1"/>
</g>
<!-- 0x55be7051bf60 -->
<g id="node33" class="node">
<title>0x55be7051bf60</title>
<ellipse fill="green" stroke="black" cx="387" cy="-522" rx="27" ry="18"/>
<text text-anchor="middle" x="387" y="-518.3" font-family="Times,serif" font-size="14.00" fill="white">s</text>
</g>
<!-- 0x55be7051bf40&#45;&gt;0x55be7051bf60 -->
<g id="edge32" class="edge">
<title>0x55be7051bf40&#45;&gt;0x55be7051bf60</title>
<path fill="none" stroke="black" d="M387,-575.7C387,-567.98 387,-558.71 387,-550.11"/>
<polygon fill="black" stroke="black" points="390.5,-550.1 387,-540.1 383.5,-550.1 390.5,-550.1"/>
</g>
<!-- 0x55be705219e0 -->
<g id="node35" class="node">
<title>0x55be705219e0</title>
<ellipse fill="black" stroke="black" cx="459" cy="-666" rx="27" ry="18"/>
<text text-anchor="middle" x="459" y="-662.3" font-family="Times,serif" font-size="14.00" fill="white">t</text>
</g>
<!-- 0x55be70521810&#45;&gt;0x55be705219e0 -->
<g id="edge34" class="edge">
<title>0x55be70521810&#45;&gt;0x55be705219e0</title>
<path fill="none" stroke="black" d="M459,-719.7C459,-711.98 459,-702.71 459,-694.11"/>
<polygon fill="black" stroke="black" points="462.5,-694.1 459,-684.1 455.5,-694.1 462.5,-694.1"/>
</g>
<!-- 0x55be70521bb0 -->
<g id="node36" class="node">
<title>0x55be70521bb0</title>
<ellipse fill="black" stroke="black" cx="459" cy="-594" rx="27" ry="18"/>
<text text-anchor="middle" x="459" y="-590.3" font-family="Times,serif" font-size="14.00" fill="white">a</text>
</g>
<!-- 0x55be705219e0&#45;&gt;0x55be70521bb0 -->
<g id="edge35" class="edge">
<title>0x55be705219e0&#45;&gt;0x55be70521bb0</title>
<path fill="none" stroke="black" d="M459,-647.7C459,-639.98 459,-630.71 459,-622.11"/>
<polygon fill="black" stroke="black" points="462.5,-622.1 459,-612.1 455.5,-622.1 462.5,-622.1"/>
</g>
<!-- 0x55be70521d80 -->
<g id="node37" class="node">
<title>0x55be70521d80</title>
<ellipse fill="black" stroke="black" cx="459" cy="-522" rx="27" ry="18"/>
<text text-anchor="middle" x="459" y="-518.3" font-family="Times,serif" font-size="14.00" fill="white">c</text>
</g>
<!-- 0x55be70521bb0&#45;&gt;0x55be70521d80 -->
<g id="edge36" class="edge">
<title>0x55be70521bb0&#45;&gt;0x55be70521d80</title>
<path fill="none" stroke="black" d="M459,-575.7C459,-567.98 459,-558.71 459,-550.11"/>
<polygon fill="black" stroke="black" points="462.5,-550.1 459,-540.1 455.5,-550.1 462.5,-550.1"/>
</g>
<!-- 0x55be70521f50 -->
<g id="node38" class="node">
<title>0x55be70521f50</title>
<ellipse fill="green" stroke="black" cx="459" cy="-450" rx="27" ry="18"/>
<text text-anchor="middle" x="459" y="-446.3" font-family="Times,serif" font-size="14.00" fill="white">k</text>
</g>
<!-- 0x55be70521d80&#45;&gt;0x55be70521f50 -->
<g id="edge37" class="edge">
<title>0x55be70521d80&#45;&gt;0x55be70521f50</title>
<path fill="none" stroke="black" d="M459,-503.7C459,-495.98 459,-486.71 459,-478.11"/>
<polygon fill="black" stroke="black" points="462.5,-478.1 459,-468.1 455.5,-478.1 462.5,-478.1"/>
</g>
</g>
</svg>
