<?xml version="1.0" encoding="UTF-8" standalone="no"?>
<!DOCTYPE svg PUBLIC "-//W3C//DTD SVG 1.1//EN"
 "http://www.w3.org/Graphics/SVG/1.1/DTD/svg11.dtd">
<!-- Generated by graphviz version 2.43.0 (0)
 -->
<!-- Title: %3 Pages: 1 -->
<svg width="782pt" height="836pt"
 viewBox="0.00 0.00 782.00 836.00" xmlns="http://www.w3.org/2000/svg" xmlns:xlink="http://www.w3.org/1999/xlink">
<g id="graph0" class="graph" transform="scale(1 1) rotate(0) translate(4 832)">
<title>%3</title>
<polygon fill="white" stroke="transparent" points="-4,4 -4,-832 778,-832 778,4 -4,4"/>
<!-- 0x55be7051b2c0 -->
<g id="node1" class="node">
<title>0x55be7051b2c0</title>
<ellipse fill="red" stroke="black" cx="428" cy="-810" rx="27" ry="18"/>
<text text-anchor="middle" x="428" y="-806.3" font-family="Times,serif" font-size="14.00" fill="white">.</text>
</g>
<!-- 0x55be7051c180 -->
<g id="node2" class="node">
<title>0x55be7051c180</title>
<ellipse fill="black" stroke="black" cx="180" cy="-738" rx="27" ry="18"/>
<text text-anchor="middle" x="180" y="-734.3" font-family="Times,serif" font-size="14.00" fill="white">a</text>
</g>
<!-- 0x55be7051b2c0&#45;&gt;0x55be7051c180 -->
<g id="edge1" class="edge">
<title>0x55be7051b2c0&#45;&gt;0x55be7051c180</title>
<path fill="none" stroke="black" d="M403.11,-802.53C366.11,-792.83 294.46,-773.77 234,-756 227.35,-754.04 220.26,-751.88 213.48,-749.76"/>
<polygon fill="black" stroke="black" points="214.45,-746.4 203.86,-746.73 212.35,-753.07 214.45,-746.4"/>
</g>
<!-- 0x55be70520990 -->
<g id="node14" class="node">
<title>0x55be70520990</title>
<ellipse fill="black" stroke="black" cx="270" cy="-738" rx="27" ry="18"/>
<text text-anchor="middle" x="270" y="-734.3" font-family="Times,serif" font-size="14.00" fill="white">b</text>
</g>
<!-- 0x55be7051b2c0&#45;&gt;0x55be70520990 -->
<g id="edge13" class="edge">
<title>0x55be7051b2c0&#45;&gt;0x55be70520990</title>
<path fill="none" stroke="black" d="M406.03,-799.27C378.79,-787.2 332.19,-766.55 301.24,-752.84"/>
<polygon fill="black" stroke="black" points="302.34,-749.5 291.78,-748.65 299.51,-755.9 302.34,-749.5"/>
</g>
<!-- 0x55be7051bf80 -->
<g id="node22" class="node">
<title>0x55be7051bf80</title>
<ellipse fill="black" stroke="black" cx="392" cy="-738" rx="27" ry="18"/>
<text text-anchor="middle" x="392" y="-734.3" font-family="Times,serif" font-size="14.00" fill="white">f</text>
</g>
<!-- 0x55be7051b2c0&#45;&gt;0x55be7051bf80 -->
<g id="edge21" class="edge">
<title>0x55be7051b2c0&#45;&gt;0x55be7051bf80</title>
<path fill="none" stroke="black" d="M419.65,-792.76C415.29,-784.28 409.85,-773.71 404.96,-764.2"/>
<polygon fill="black" stroke="black" points="407.99,-762.44 400.3,-755.15 401.77,-765.64 407.99,-762.44"/>
</g>
<!-- 0x55be70522120 -->
<g id="node35" class="node">
<title>0x55be70522120</title>
<ellipse fill="black" stroke="black" cx="491" cy="-738" rx="27" ry="18"/>
<text text-anchor="middle" x="491" y="-734.3" font-family="Times,serif" font-size="14.00" fill="white">h</text>
</g>
<!-- 0x55be7051b2c0&#45;&gt;0x55be70522120 -->
<g id="edge34" class="edge">
<title>0x55be7051b2c0&#45;&gt;0x55be70522120</title>
<path fill="none" stroke="black" d="M441.36,-794.15C449.88,-784.69 461.09,-772.24 470.69,-761.56"/>
<polygon fill="black" stroke="black" points="473.57,-763.6 477.66,-753.82 468.37,-758.92 473.57,-763.6"/>
</g>
<!-- 0x55be7051bf00 -->
<g id="node39" class="node">
<title>0x55be7051bf00</title>
<ellipse fill="black" stroke="black" cx="576" cy="-738" rx="27" ry="18"/>
<text text-anchor="middle" x="576" y="-734.3" font-family="Times,serif" font-size="14.00" fill="white">n</text>
</g>
<!-- 0x55be7051b2c0&#45;&gt;0x55be7051bf00 -->
<g id="edge38" class="edge">
<title>0x55be7051b2c0&#45;&gt;0x55be7051bf00</title>
<path fill="none" stroke="black" d="M449.52,-798.82C474.73,-786.9 516.68,-767.06 545.3,-753.52"/>
<polygon fill="black" stroke="black" points="546.91,-756.63 554.45,-749.19 543.92,-750.3 546.91,-756.63"/>
</g>
<!-- 0x55be70521810 -->
<g id="node43" class="node">
<title>0x55be70521810</title>
<ellipse fill="black" stroke="black" cx="655" cy="-738" rx="27" ry="18"/>
<text text-anchor="middle" x="655" y="-734.3" font-family="Times,serif" font-size="14.00" fill="white">s</text>
</g>
<!-- 0x55be7051b2c0&#45;&gt;0x55be70521810 -->
<g id="edge42" class="edge">
<title>0x55be7051b2c0&#45;&gt;0x55be70521810</title>
<path fill="none" stroke="black" d="M452.94,-802.63C488.54,-793.36 555.83,-775.14 612,-756 615.55,-754.79 619.24,-753.45 622.9,-752.08"/>
<polygon fill="black" stroke="black" points="624.32,-755.28 632.39,-748.41 621.8,-748.75 624.32,-755.28"/>
</g>
<!-- 0x55be7051c8d0 -->
<g id="node3" class="node">
<title>0x55be7051c8d0</title>
<ellipse fill="black" stroke="black" cx="144" cy="-666" rx="27" ry="18"/>
<text text-anchor="middle" x="144" y="-662.3" font-family="Times,serif" font-size="14.00" fill="white">p</text>
</g>
<!-- 0x55be7051c180&#45;&gt;0x55be7051c8d0 -->
<g id="edge2" class="edge">
<title>0x55be7051c180&#45;&gt;0x55be7051c8d0</title>
<path fill="none" stroke="black" d="M171.65,-720.76C167.29,-712.28 161.85,-701.71 156.96,-692.2"/>
<polygon fill="black" stroke="black" points="159.99,-690.44 152.3,-683.15 153.77,-693.64 159.99,-690.44"/>
</g>
<!-- 0x55be7051c530 -->
<g id="node4" class="node">
<title>0x55be7051c530</title>
<ellipse fill="black" stroke="black" cx="99" cy="-594" rx="27" ry="18"/>
<text text-anchor="middle" x="99" y="-590.3" font-family="Times,serif" font-size="14.00" fill="white">p</text>
</g>
<!-- 0x55be7051c8d0&#45;&gt;0x55be7051c530 -->
<g id="edge3" class="edge">
<title>0x55be7051c8d0&#45;&gt;0x55be7051c530</title>
<path fill="none" stroke="black" d="M133.79,-649.12C128.15,-640.34 121.03,-629.26 114.7,-619.42"/>
<polygon fill="black" stroke="black" points="117.52,-617.34 109.17,-610.82 111.63,-621.13 117.52,-617.34"/>
</g>
<!-- 0x55be7051c700 -->
<g id="node5" class="node">
<title>0x55be7051c700</title>
<ellipse fill="black" stroke="black" cx="99" cy="-522" rx="27" ry="18"/>
<text text-anchor="middle" x="99" y="-518.3" font-family="Times,serif" font-size="14.00" fill="white">l</text>
</g>
<!-- 0x55be7051c530&#45;&gt;0x55be7051c700 -->
<g id="edge4" class="edge">
<title>0x55be7051c530&#45;&gt;0x55be7051c700</title>
<path fill="none" stroke="black" d="M99,-575.7C99,-567.98 99,-558.71 99,-550.11"/>
<polygon fill="black" stroke="black" points="102.5,-550.1 99,-540.1 95.5,-550.1 102.5,-550.1"/>
</g>
<!-- 0x55be7051bee0 -->
<g id="node6" class="node">
<title>0x55be7051bee0</title>
<ellipse fill="black" stroke="black" cx="27" cy="-450" rx="27" ry="18"/>
<text text-anchor="middle" x="27" y="-446.3" font-family="Times,serif" font-size="14.00" fill="white">e</text>
</g>
<!-- 0x55be7051c700&#45;&gt;0x55be7051bee0 -->
<g id="edge5" class="edge">
<title>0x55be7051c700&#45;&gt;0x55be7051bee0</title>
<path fill="none" stroke="black" d="M84.43,-506.83C74.25,-496.94 60.48,-483.55 48.97,-472.36"/>
<polygon fill="black" stroke="black" points="51.41,-469.85 41.8,-465.38 46.53,-474.87 51.41,-469.85"/>
</g>
<!-- 0x55be7051caa0 -->
<g id="node7" class="node">
<title>0x55be7051caa0</title>
<ellipse fill="black" stroke="black" cx="99" cy="-450" rx="27" ry="18"/>
<text text-anchor="middle" x="99" y="-446.3" font-family="Times,serif" font-size="14.00" fill="white">i</text>
</g>
<!-- 0x55be7051c700&#45;&gt;0x55be7051caa0 -->
<g id="edge6" class="edge">
<title>0x55be7051c700&#45;&gt;0x55be7051caa0</title>
<path fill="none" stroke="black" d="M99,-503.7C99,-495.98 99,-486.71 99,-478.11"/>
<polygon fill="black" stroke="black" points="102.5,-478.1 99,-468.1 95.5,-478.1 102.5,-478.1"/>
</g>
<!-- 0x55be7051cc70 -->
<g id="node8" class="node">
<title>0x55be7051cc70</title>
<ellipse fill="black" stroke="black" cx="99" cy="-378" rx="27" ry="18"/>
<text text-anchor="middle" x="99" y="-374.3" font-family="Times,serif" font-size="14.00" fill="white">c</text>
</g>
<!-- 0x55be7051caa0&#45;&gt;0x55be7051cc70 -->
<g id="edge7" class="edge">
<title>0x55be7051caa0&#45;&gt;0x55be7051cc70</title>
<path fill="none" stroke="black" d="M99,-431.7C99,-423.98 99,-414.71 99,-406.11"/>
<polygon fill="black" stroke="black" points="102.5,-406.1 99,-396.1 95.5,-406.1 102.5,-406.1"/>
</g>
<!-- 0x55be7051bdc0 -->
<g id="node9" class="node">
<title>0x55be7051bdc0</title>
<ellipse fill="black" stroke="black" cx="99" cy="-306" rx="27" ry="18"/>
<text text-anchor="middle" x="99" y="-302.3" font-family="Times,serif" font-size="14.00" fill="white">a</text>
</g>
<!-- 0x55be7051cc70&#45;&gt;0x55be7051bdc0 -->
<g id="edge8" class="edge">
<title>0x55be7051cc70&#45;&gt;0x55be7051bdc0</title>
<path fill="none" stroke="black" d="M99,-359.7C99,-351.98 99,-342.71 99,-334.11"/>
<polygon fill="black" stroke="black" points="102.5,-334.1 99,-324.1 95.5,-334.1 102.5,-334.1"/>
</g>
<!-- 0x55be7051be60 -->
<g id="node10" class="node">
<title>0x55be7051be60</title>
<ellipse fill="black" stroke="black" cx="99" cy="-234" rx="27" ry="18"/>
<text text-anchor="middle" x="99" y="-230.3" font-family="Times,serif" font-size="14.00" fill="white">t</text>
</g>
<!-- 0x55be7051bdc0&#45;&gt;0x55be7051be60 -->
<g id="edge9" class="edge">
<title>0x55be7051bdc0&#45;&gt;0x55be7051be60</title>
<path fill="none" stroke="black" d="M99,-287.7C99,-279.98 99,-270.71 99,-262.11"/>
<polygon fill="black" stroke="black" points="102.5,-262.1 99,-252.1 95.5,-262.1 102.5,-262.1"/>
</g>
<!-- 0x55be7051be80 -->
<g id="node11" class="node">
<title>0x55be7051be80</title>
<ellipse fill="black" stroke="black" cx="99" cy="-162" rx="27" ry="18"/>
<text text-anchor="middle" x="99" y="-158.3" font-family="Times,serif" font-size="14.00" fill="white">i</text>
</g>
<!-- 0x55be7051be60&#45;&gt;0x55be7051be80 -->
<g id="edge10" class="edge">
<title>0x55be7051be60&#45;&gt;0x55be7051be80</title>
<path fill="none" stroke="black" d="M99,-215.7C99,-207.98 99,-198.71 99,-190.11"/>
<polygon fill="black" stroke="black" points="102.5,-190.1 99,-180.1 95.5,-190.1 102.5,-190.1"/>
</g>
<!-- 0x55be7051bea0 -->
<g id="node12" class="node">
<title>0x55be7051bea0</title>
<ellipse fill="black" stroke="black" cx="99" cy="-90" rx="27" ry="18"/>
<text text-anchor="middle" x="99" y="-86.3" font-family="Times,serif" font-size="14.00" fill="white">o</text>
</g>
<!-- 0x55be7051be80&#45;&gt;0x55be7051bea0 -->
<g id="edge11" class="edge">
<title>0x55be7051be80&#45;&gt;0x55be7051bea0</title>
<path fill="none" stroke="black" d="M99,-143.7C99,-135.98 99,-126.71 99,-118.11"/>
<polygon fill="black" stroke="black" points="102.5,-118.1 99,-108.1 95.5,-118.1 102.5,-118.1"/>
</g>
<!-- 0x55be7051bec0 -->
<g id="node13" class="node">
<title>0x55be7051bec0</title>
<ellipse fill="green" stroke="black" cx="99" cy="-18" rx="27" ry="18"/>
<text text-anchor="middle" x="99" y="-14.3" font-family="Times,serif" font-size="14.00" fill="white">n</text>
</g>
<!-- 0x55be7051bea0&#45;&gt;0x55be7051bec0 -->
<g id="edge12" class="edge">
<title>0x55be7051bea0&#45;&gt;0x55be7051bec0</title>
<path fill="none" stroke="black" d="M99,-71.7C99,-63.98 99,-54.71 99,-46.11"/>
<polygon fill="black" stroke="black" points="102.5,-46.1 99,-36.1 95.5,-46.1 102.5,-46.1"/>
</g>
<!-- 0x55be70520b60 -->
<g id="node15" class="node">
<title>0x55be70520b60</title>
<ellipse fill="black" stroke="black" cx="243" cy="-666" rx="27" ry="18"/>
<text text-anchor="middle" x="243" y="-662.3" font-family="Times,serif" font-size="14.00" fill="white">a</text>
</g>
<!-- 0x55be70520990&#45;&gt;0x55be70520b60 -->
<g id="edge14" class="edge">
<title>0x55be70520990&#45;&gt;0x55be70520b60</title>
<path fill="none" stroke="black" d="M263.6,-720.41C260.49,-712.34 256.67,-702.43 253.17,-693.35"/>
<polygon fill="black" stroke="black" points="256.4,-692.03 249.54,-683.96 249.87,-694.55 256.4,-692.03"/>
</g>
<!-- 0x55be705210d0 -->
<g id="node16" class="node">
<title>0x55be705210d0</title>
<ellipse fill="black" stroke="black" cx="171" cy="-594" rx="27" ry="18"/>
<text text-anchor="middle" x="171" y="-590.3" font-family="Times,serif" font-size="14.00" fill="white">n</text>
</g>
<!-- 0x55be70520b60&#45;&gt;0x55be705210d0 -->
<g id="edge15" class="edge">
<title>0x55be70520b60&#45;&gt;0x55be705210d0</title>
<path fill="none" stroke="black" d="M228.43,-650.83C218.25,-640.94 204.48,-627.55 192.97,-616.36"/>
<polygon fill="black" stroke="black" points="195.41,-613.85 185.8,-609.38 190.53,-618.87 195.41,-613.85"/>
</g>
<!-- 0x55be70520d30 -->
<g id="node20" class="node">
<title>0x55be70520d30</title>
<ellipse fill="black" stroke="black" cx="243" cy="-594" rx="27" ry="18"/>
<text text-anchor="middle" x="243" y="-590.3" font-family="Times,serif" font-size="14.00" fill="white">s</text>
</g>
<!-- 0x55be70520b60&#45;&gt;0x55be70520d30 -->
<g id="edge19" class="edge">
<title>0x55be70520b60&#45;&gt;0x55be70520d30</title>
<path fill="none" stroke="black" d="M243,-647.7C243,-639.98 243,-630.71 243,-622.11"/>
<polygon fill="black" stroke="black" points="246.5,-622.1 243,-612.1 239.5,-622.1 246.5,-622.1"/>
</g>
<!-- 0x55be705212a0 -->
<g id="node17" class="node">
<title>0x55be705212a0</title>
<ellipse fill="black" stroke="black" cx="171" cy="-522" rx="27" ry="18"/>
<text text-anchor="middle" x="171" y="-518.3" font-family="Times,serif" font-size="14.00" fill="white">a</text>
</g>
<!-- 0x55be705210d0&#45;&gt;0x55be705212a0 -->
<g id="edge16" class="edge">
<title>0x55be705210d0&#45;&gt;0x55be705212a0</title>
<path fill="none" stroke="black" d="M171,-575.7C171,-567.98 171,-558.71 171,-550.11"/>
<polygon fill="black" stroke="black" points="174.5,-550.1 171,-540.1 167.5,-550.1 174.5,-550.1"/>
</g>
<!-- 0x55be70521470 -->
<g id="node18" class="node">
<title>0x55be70521470</title>
<ellipse fill="black" stroke="black" cx="171" cy="-450" rx="27" ry="18"/>
<text text-anchor="middle" x="171" y="-446.3" font-family="Times,serif" font-size="14.00" fill="white">n</text>
</g>
<!-- 0x55be705212a0&#45;&gt;0x55be70521470 -->
<g id="edge17" class="edge">
<title>0x55be705212a0&#45;&gt;0x55be70521470</title>
<path fill="none" stroke="black" d="M171,-503.7C171,-495.98 171,-486.71 171,-478.11"/>
<polygon fill="black" stroke="black" points="174.5,-478.1 171,-468.1 167.5,-478.1 174.5,-478.1"/>
</g>
<!-- 0x55be70521640 -->
<g id="node19" class="node">
<title>0x55be70521640</title>
<ellipse fill="green" stroke="black" cx="171" cy="-378" rx="27" ry="18"/>
<text text-anchor="middle" x="171" y="-374.3" font-family="Times,serif" font-size="14.00" fill="white">a</text>
</g>
<!-- 0x55be70521470&#45;&gt;0x55be70521640 -->
<g id="edge18" class="edge">
<title>0x55be70521470&#45;&gt;0x55be70521640</title>
<path fill="none" stroke="black" d="M171,-431.7C171,-423.98 171,-414.71 171,-406.11"/>
<polygon fill="black" stroke="black" points="174.5,-406.1 171,-396.1 167.5,-406.1 174.5,-406.1"/>
</g>
<!-- 0x55be70520f00 -->
<g id="node21" class="node">
<title>0x55be70520f00</title>
<ellipse fill="black" stroke="black" cx="243" cy="-522" rx="27" ry="18"/>
<text text-anchor="middle" x="243" y="-518.3" font-family="Times,serif" font-size="14.00" fill="white">e</text>
</g>
<!-- 0x55be70520d30&#45;&gt;0x55be70520f00 -->
<g id="edge20" class="edge">
<title>0x55be70520d30&#45;&gt;0x55be70520f00</title>
<path fill="none" stroke="black" d="M243,-575.7C243,-567.98 243,-558.71 243,-550.11"/>
<polygon fill="black" stroke="black" points="246.5,-550.1 243,-540.1 239.5,-550.1 246.5,-550.1"/>
</g>
<!-- 0x55be7051ce40 -->
<g id="node23" class="node">
<title>0x55be7051ce40</title>
<ellipse fill="black" stroke="black" cx="318" cy="-666" rx="27" ry="18"/>
<text text-anchor="middle" x="318" y="-662.3" font-family="Times,serif" font-size="14.00" fill="white">a</text>
</g>
<!-- 0x55be7051bf80&#45;&gt;0x55be7051ce40 -->
<g id="edge22" class="edge">
<title>0x55be7051bf80&#45;&gt;0x55be7051ce40</title>
<path fill="none" stroke="black" d="M377.02,-722.83C366.49,-712.87 352.22,-699.37 340.34,-688.14"/>
<polygon fill="black" stroke="black" points="342.62,-685.47 332.95,-681.14 337.81,-690.56 342.62,-685.47"/>
</g>
<!-- 0x55be7051fce0 -->
<g id="node26" class="node">
<title>0x55be7051fce0</title>
<ellipse fill="black" stroke="black" cx="392" cy="-666" rx="27" ry="18"/>
<text text-anchor="middle" x="392" y="-662.3" font-family="Times,serif" font-size="14.00" fill="white">e</text>
</g>
<!-- 0x55be7051bf80&#45;&gt;0x55be7051fce0 -->
<g id="edge25" class="edge">
<title>0x55be7051bf80&#45;&gt;0x55be7051fce0</title>
<path fill="none" stroke="black" d="M392,-719.7C392,-711.98 392,-702.71 392,-694.11"/>
<polygon fill="black" stroke="black" points="395.5,-694.1 392,-684.1 388.5,-694.1 395.5,-694.1"/>
</g>
<!-- 0x55be7051d010 -->
<g id="node24" class="node">
<title>0x55be7051d010</title>
<ellipse fill="black" stroke="black" cx="315" cy="-594" rx="27" ry="18"/>
<text text-anchor="middle" x="315" y="-590.3" font-family="Times,serif" font-size="14.00" fill="white">c</text>
</g>
<!-- 0x55be7051ce40&#45;&gt;0x55be7051d010 -->
<g id="edge23" class="edge">
<title>0x55be7051ce40&#45;&gt;0x55be7051d010</title>
<path fill="none" stroke="black" d="M317.26,-647.7C316.93,-639.98 316.53,-630.71 316.16,-622.11"/>
<polygon fill="black" stroke="black" points="319.66,-621.95 315.73,-612.1 312.66,-622.25 319.66,-621.95"/>
</g>
<!-- 0x55be7051d1e0 -->
<g id="node25" class="node">
<title>0x55be7051d1e0</title>
<ellipse fill="green" stroke="black" cx="315" cy="-522" rx="27" ry="18"/>
<text text-anchor="middle" x="315" y="-518.3" font-family="Times,serif" font-size="14.00" fill="white">e</text>
</g>
<!-- 0x55be7051d010&#45;&gt;0x55be7051d1e0 -->
<g id="edge24" class="edge">
<title>0x55be7051d010&#45;&gt;0x55be7051d1e0</title>
<path fill="none" stroke="black" d="M315,-575.7C315,-567.98 315,-558.71 315,-550.11"/>
<polygon fill="black" stroke="black" points="318.5,-550.1 315,-540.1 311.5,-550.1 318.5,-550.1"/>
</g>
<!-- 0x55be7051d3b0 -->
<g id="node27" class="node">
<title>0x55be7051d3b0</title>
<ellipse fill="black" stroke="black" cx="387" cy="-594" rx="27" ry="18"/>
<text text-anchor="middle" x="387" y="-590.3" font-family="Times,serif" font-size="14.00" fill="white">a</text>
</g>
<!-- 0x55be7051fce0&#45;&gt;0x55be7051d3b0 -->
<g id="edge26" class="edge">
<title>0x55be7051fce0&#45;&gt;0x55be7051d3b0</title>
<path fill="none" stroke="black" d="M390.76,-647.7C390.21,-639.98 389.55,-630.71 388.94,-622.11"/>
<polygon fill="black" stroke="black" points="392.43,-621.83 388.22,-612.1 385.44,-622.33 392.43,-621.83"/>
</g>
<!-- 0x55be7051feb0 -->
<g id="node29" class="node">
<title>0x55be7051feb0</title>
<ellipse fill="black" stroke="black" cx="459" cy="-594" rx="27" ry="18"/>
<text text-anchor="middle" x="459" y="-590.3" font-family="Times,serif" font-size="14.00" fill="white">e</text>
</g>
<!-- 0x55be7051fce0&#45;&gt;0x55be7051feb0 -->
<g id="edge28" class="edge">
<title>0x55be7051fce0&#45;&gt;0x55be7051feb0</title>
<path fill="none" stroke="black" d="M405.88,-650.5C415.14,-640.83 427.47,-627.94 437.93,-617.02"/>
<polygon fill="black" stroke="black" points="440.75,-619.13 445.14,-609.49 435.69,-614.29 440.75,-619.13"/>
</g>
<!-- 0x55be7051d580 -->
<g id="node28" class="node">
<title>0x55be7051d580</title>
<ellipse fill="green" stroke="black" cx="387" cy="-522" rx="27" ry="18"/>
<text text-anchor="middle" x="387" y="-518.3" font-family="Times,serif" font-size="14.00" fill="white">r</text>
</g>
<!-- 0x55be7051d3b0&#45;&gt;0x55be7051d580 -->
<g id="edge27" class="edge">
<title>0x55be7051d3b0&#45;&gt;0x55be7051d580</title>
<path fill="none" stroke="black" d="M387,-575.7C387,-567.98 387,-558.71 387,-550.11"/>
<polygon fill="black" stroke="black" points="390.5,-550.1 387,-540.1 383.5,-550.1 390.5,-550.1"/>
</g>
<!-- 0x55be70520080 -->
<g id="node30" class="node">
<title>0x55be70520080</title>
<ellipse fill="black" stroke="black" cx="459" cy="-522" rx="27" ry="18"/>
<text text-anchor="middle" x="459" y="-518.3" font-family="Times,serif" font-size="14.00" fill="white">d</text>
</g>
<!-- 0x55be7051feb0&#45;&gt;0x55be70520080 -->
<g id="edge29" class="edge">
<title>0x55be7051feb0&#45;&gt;0x55be70520080</title>
<path fill="none" stroke="black" d="M459,-575.7C459,-567.98 459,-558.71 459,-550.11"/>
<polygon fill="black" stroke="black" points="462.5,-550.1 459,-540.1 455.5,-550.1 462.5,-550.1"/>
</g>
<!-- 0x55be70520250 -->
<g id="node31" class="node">
<title>0x55be70520250</title>
<ellipse fill="black" stroke="black" cx="531" cy="-522" rx="27" ry="18"/>
<text text-anchor="middle" x="531" y="-518.3" font-family="Times,serif" font-size="14.00" fill="white">l</text>
</g>
<!-- 0x55be7051feb0&#45;&gt;0x55be70520250 -->
<g id="edge30" class="edge">
<title>0x55be7051feb0&#45;&gt;0x55be70520250</title>
<path fill="none" stroke="black" d="M473.57,-578.83C483.75,-568.94 497.52,-555.55 509.03,-544.36"/>
<polygon fill="black" stroke="black" points="511.47,-546.87 516.2,-537.38 506.59,-541.85 511.47,-546.87"/>
</g>
<!-- 0x55be70520420 -->
<g id="node32" class="node">
<title>0x55be70520420</title>
<ellipse fill="black" stroke="black" cx="531" cy="-450" rx="27" ry="18"/>
<text text-anchor="middle" x="531" y="-446.3" font-family="Times,serif" font-size="14.00" fill="white">i</text>
</g>
<!-- 0x55be70520250&#45;&gt;0x55be70520420 -->
<g id="edge31" class="edge">
<title>0x55be70520250&#45;&gt;0x55be70520420</title>
<path fill="none" stroke="black" d="M531,-503.7C531,-495.98 531,-486.71 531,-478.11"/>
<polygon fill="black" stroke="black" points="534.5,-478.1 531,-468.1 527.5,-478.1 534.5,-478.1"/>
</g>
<!-- 0x55be705205f0 -->
<g id="node33" class="node">
<title>0x55be705205f0</title>
<ellipse fill="black" stroke="black" cx="531" cy="-378" rx="27" ry="18"/>
<text text-anchor="middle" x="531" y="-374.3" font-family="Times,serif" font-size="14.00" fill="white">n</text>
</g>
<!-- 0x55be70520420&#45;&gt;0x55be705205f0 -->
<g id="edge32" class="edge">
<title>0x55be70520420&#45;&gt;0x55be705205f0</title>
<path fill="none" stroke="black" d="M531,-431.7C531,-423.98 531,-414.71 531,-406.11"/>
<polygon fill="black" stroke="black" points="534.5,-406.1 531,-396.1 527.5,-406.1 534.5,-406.1"/>
</g>
<!-- 0x55be705207c0 -->
<g id="node34" class="node">
<title>0x55be705207c0</title>
<ellipse fill="black" stroke="black" cx="531" cy="-306" rx="27" ry="18"/>
<text text-anchor="middle" x="531" y="-302.3" font-family="Times,serif" font-size="14.00" fill="white">g</text>
</g>
<!-- 0x55be705205f0&#45;&gt;0x55be705207c0 -->
<g id="edge33" class="edge">
<title>0x55be705205f0&#45;&gt;0x55be705207c0</title>
<path fill="none" stroke="black" d="M531,-359.7C531,-351.98 531,-342.71 531,-334.11"/>
<polygon fill="black" stroke="black" points="534.5,-334.1 531,-324.1 527.5,-334.1 534.5,-334.1"/>
</g>
<!-- 0x55be705222f0 -->
<g id="node36" class="node">
<title>0x55be705222f0</title>
<ellipse fill="black" stroke="black" cx="510" cy="-666" rx="27" ry="18"/>
<text text-anchor="middle" x="510" y="-662.3" font-family="Times,serif" font-size="14.00" fill="white">e</text>
</g>
<!-- 0x55be70522120&#45;&gt;0x55be705222f0 -->
<g id="edge35" class="edge">
<title>0x55be70522120&#45;&gt;0x55be705222f0</title>
<path fill="none" stroke="black" d="M495.6,-720.05C497.75,-712.14 500.35,-702.54 502.76,-693.69"/>
<polygon fill="black" stroke="black" points="506.2,-694.36 505.44,-683.79 499.45,-692.52 506.2,-694.36"/>
</g>
<!-- 0x55be705224c0 -->
<g id="node37" class="node">
<title>0x55be705224c0</title>
<ellipse fill="black" stroke="black" cx="567" cy="-594" rx="27" ry="18"/>
<text text-anchor="middle" x="567" y="-590.3" font-family="Times,serif" font-size="14.00" fill="white">a</text>
</g>
<!-- 0x55be705222f0&#45;&gt;0x55be705224c0 -->
<g id="edge36" class="edge">
<title>0x55be705222f0&#45;&gt;0x55be705224c0</title>
<path fill="none" stroke="black" d="M522.37,-649.81C529.91,-640.55 539.7,-628.52 548.19,-618.09"/>
<polygon fill="black" stroke="black" points="551.06,-620.12 554.66,-610.16 545.63,-615.7 551.06,-620.12"/>
</g>
<!-- 0x55be70522690 -->
<g id="node38" class="node">
<title>0x55be70522690</title>
<ellipse fill="green" stroke="black" cx="603" cy="-522" rx="27" ry="18"/>
<text text-anchor="middle" x="603" y="-518.3" font-family="Times,serif" font-size="14.00" fill="white">p</text>
</g>
<!-- 0x55be705224c0&#45;&gt;0x55be70522690 -->
<g id="edge37" class="edge">
<title>0x55be705224c0&#45;&gt;0x55be70522690</title>
<path fill="none" stroke="black" d="M575.35,-576.76C579.71,-568.28 585.15,-557.71 590.04,-548.2"/>
<polygon fill="black" stroke="black" points="593.23,-549.64 594.7,-539.15 587.01,-546.44 593.23,-549.64"/>
</g>
<!-- 0x55be7051bf20 -->
<g id="node40" class="node">
<title>0x55be7051bf20</title>
<ellipse fill="black" stroke="black" cx="619" cy="-666" rx="27" ry="18"/>
<text text-anchor="middle" x="619" y="-662.3" font-family="Times,serif" font-size="14.00" fill="white">e</text>
</g>
<!-- 0x55be7051bf00&#45;&gt;0x55be7051bf20 -->
<g id="edge39" class="edge">
<title>0x55be7051bf00&#45;&gt;0x55be7051bf20</title>
<path fill="none" stroke="black" d="M585.76,-721.12C591.15,-712.34 597.95,-701.26 604,-691.42"/>
<polygon fill="black" stroke="black" points="607.03,-693.17 609.28,-682.82 601.06,-689.51 607.03,-693.17"/>
</g>
<!-- 0x55be7051bf40 -->
<g id="node41" class="node">
<title>0x55be7051bf40</title>
<ellipse fill="green" stroke="black" cx="657" cy="-594" rx="27" ry="18"/>
<text text-anchor="middle" x="657" y="-590.3" font-family="Times,serif" font-size="14.00" fill="white">w</text>
</g>
<!-- 0x55be7051bf20&#45;&gt;0x55be7051bf40 -->
<g id="edge40" class="edge">
<title>0x55be7051bf20&#45;&gt;0x55be7051bf40</title>
<path fill="none" stroke="black" d="M627.81,-648.76C632.42,-640.28 638.16,-629.71 643.32,-620.2"/>
<polygon fill="black" stroke="black" points="646.54,-621.61 648.23,-611.15 640.39,-618.27 646.54,-621.61"/>
</g>
<!-- 0x55be7051bf60 -->
<g id="node42" class="node">
<title>0x55be7051bf60</title>
<ellipse fill="green" stroke="black" cx="675" cy="-522" rx="27" ry="18"/>
<text text-anchor="middle" x="675" y="-518.3" font-family="Times,serif" font-size="14.00" fill="white">s</text>
</g>
<!-- 0x55be7051bf40&#45;&gt;0x55be7051bf60 -->
<g id="edge41" class="edge">
<title>0x55be7051bf40&#45;&gt;0x55be7051bf60</title>
<path fill="none" stroke="black" d="M661.36,-576.05C663.39,-568.14 665.86,-558.54 668.14,-549.69"/>
<polygon fill="black" stroke="black" points="671.58,-550.35 670.68,-539.79 664.8,-548.6 671.58,-550.35"/>
</g>
<!-- 0x55be705219e0 -->
<g id="node44" class="node">
<title>0x55be705219e0</title>
<ellipse fill="black" stroke="black" cx="709" cy="-666" rx="27" ry="18"/>
<text text-anchor="middle" x="709" y="-662.3" font-family="Times,serif" font-size="14.00" fill="white">t</text>
</g>
<!-- 0x55be70521810&#45;&gt;0x55be705219e0 -->
<g id="edge43" class="edge">
<title>0x55be70521810&#45;&gt;0x55be705219e0</title>
<path fill="none" stroke="black" d="M666.98,-721.46C673.98,-712.4 682.94,-700.79 690.79,-690.61"/>
<polygon fill="black" stroke="black" points="693.71,-692.55 697.05,-682.49 688.17,-688.27 693.71,-692.55"/>
</g>
<!-- 0x55be70521bb0 -->
<g id="node45" class="node">
<title>0x55be70521bb0</title>
<ellipse fill="black" stroke="black" cx="738" cy="-594" rx="27" ry="18"/>
<text text-anchor="middle" x="738" y="-590.3" font-family="Times,serif" font-size="14.00" fill="white">a</text>
</g>
<!-- 0x55be705219e0&#45;&gt;0x55be70521bb0 -->
<g id="edge44" class="edge">
<title>0x55be705219e0&#45;&gt;0x55be70521bb0</title>
<path fill="none" stroke="black" d="M715.87,-648.41C719.27,-640.22 723.44,-630.14 727.25,-620.95"/>
<polygon fill="black" stroke="black" points="730.58,-622.05 731.18,-611.47 724.12,-619.37 730.58,-622.05"/>
</g>
<!-- 0x55be70521d80 -->
<g id="node46" class="node">
<title>0x55be70521d80</title>
<ellipse fill="black" stroke="black" cx="747" cy="-522" rx="27" ry="18"/>
<text text-anchor="middle" x="747" y="-518.3" font-family="Times,serif" font-size="14.00" fill="white">c</text>
</g>
<!-- 0x55be70521bb0&#45;&gt;0x55be70521d80 -->
<g id="edge45" class="edge">
<title>0x55be70521bb0&#45;&gt;0x55be70521d80</title>
<path fill="none" stroke="black" d="M740.18,-576.05C741.17,-568.35 742.37,-559.03 743.48,-550.36"/>
<polygon fill="black" stroke="black" points="746.98,-550.64 744.78,-540.28 740.03,-549.75 746.98,-550.64"/>
</g>
<!-- 0x55be70521f50 -->
<g id="node47" class="node">
<title>0x55be70521f50</title>
<ellipse fill="green" stroke="black" cx="747" cy="-450" rx="27" ry="18"/>
<text text-anchor="middle" x="747" y="-446.3" font-family="Times,serif" font-size="14.00" fill="white">k</text>
</g>
<!-- 0x55be70521d80&#45;&gt;0x55be70521f50 -->
<g id="edge46" class="edge">
<title>0x55be70521d80&#45;&gt;0x55be70521f50</title>
<path fill="none" stroke="black" d="M747,-503.7C747,-495.98 747,-486.71 747,-478.11"/>
<polygon fill="black" stroke="black" points="750.5,-478.1 747,-468.1 743.5,-478.1 750.5,-478.1"/>
</g>
</g>
</svg>
