<?xml version="1.0" encoding="UTF-8" standalone="no"?>
<!DOCTYPE svg PUBLIC "-//W3C//DTD SVG 1.1//EN"
 "http://www.w3.org/Graphics/SVG/1.1/DTD/svg11.dtd">
<!-- Generated by graphviz version 2.43.0 (0)
 -->
<!-- Title: %3 Pages: 1 -->
<svg width="638pt" height="836pt"
 viewBox="0.00 0.00 638.00 836.00" xmlns="http://www.w3.org/2000/svg" xmlns:xlink="http://www.w3.org/1999/xlink">
<g id="graph0" class="graph" transform="scale(1 1) rotate(0) translate(4 832)">
<title>%3</title>
<polygon fill="white" stroke="transparent" points="-4,4 -4,-832 634,-832 634,4 -4,4"/>
<!-- 0x5590788182c0 -->
<g id="node1" class="node">
<title>0x5590788182c0</title>
<ellipse fill="red" stroke="black" cx="423" cy="-810" rx="27" ry="18"/>
<text text-anchor="middle" x="423" y="-806.3" font-family="Times,serif" font-size="14.00" fill="white">.</text>
</g>
<!-- 0x55907881a050 -->
<g id="node2" class="node">
<title>0x55907881a050</title>
<ellipse fill="black" stroke="black" cx="180" cy="-738" rx="27" ry="18"/>
<text text-anchor="middle" x="180" y="-734.3" font-family="Times,serif" font-size="14.00" fill="white">a</text>
</g>
<!-- 0x5590788182c0&#45;&gt;0x55907881a050 -->
<g id="edge1" class="edge">
<title>0x5590788182c0&#45;&gt;0x55907881a050</title>
<path fill="none" stroke="black" d="M398.46,-802.39C362.35,-792.59 292.79,-773.49 234,-756 227.35,-754.02 220.27,-751.84 213.49,-749.73"/>
<polygon fill="black" stroke="black" points="214.46,-746.36 203.87,-746.69 212.36,-753.04 214.46,-746.36"/>
</g>
<!-- 0x55907881cdb0 -->
<g id="node14" class="node">
<title>0x55907881cdb0</title>
<ellipse fill="black" stroke="black" cx="270" cy="-738" rx="27" ry="18"/>
<text text-anchor="middle" x="270" y="-734.3" font-family="Times,serif" font-size="14.00" fill="white">b</text>
</g>
<!-- 0x5590788182c0&#45;&gt;0x55907881cdb0 -->
<g id="edge13" class="edge">
<title>0x5590788182c0&#45;&gt;0x55907881cdb0</title>
<path fill="none" stroke="black" d="M401.4,-799.12C375.24,-787.15 330.97,-766.89 301.12,-753.24"/>
<polygon fill="black" stroke="black" points="302.53,-750.03 291.98,-749.06 299.62,-756.4 302.53,-750.03"/>
</g>
<!-- 0x55907881bf30 -->
<g id="node22" class="node">
<title>0x55907881bf30</title>
<ellipse fill="black" stroke="black" cx="387" cy="-738" rx="27" ry="18"/>
<text text-anchor="middle" x="387" y="-734.3" font-family="Times,serif" font-size="14.00" fill="white">f</text>
</g>
<!-- 0x5590788182c0&#45;&gt;0x55907881bf30 -->
<g id="edge21" class="edge">
<title>0x5590788182c0&#45;&gt;0x55907881bf30</title>
<path fill="none" stroke="black" d="M414.65,-792.76C410.29,-784.28 404.85,-773.71 399.96,-764.2"/>
<polygon fill="black" stroke="black" points="402.99,-762.44 395.3,-755.15 396.77,-765.64 402.99,-762.44"/>
</g>
<!-- 0x55907881e540 -->
<g id="node30" class="node">
<title>0x55907881e540</title>
<ellipse fill="black" stroke="black" cx="459" cy="-738" rx="27" ry="18"/>
<text text-anchor="middle" x="459" y="-734.3" font-family="Times,serif" font-size="14.00" fill="white">h</text>
</g>
<!-- 0x5590788182c0&#45;&gt;0x55907881e540 -->
<g id="edge29" class="edge">
<title>0x5590788182c0&#45;&gt;0x55907881e540</title>
<path fill="none" stroke="black" d="M431.35,-792.76C435.71,-784.28 441.15,-773.71 446.04,-764.2"/>
<polygon fill="black" stroke="black" points="449.23,-765.64 450.7,-755.15 443.01,-762.44 449.23,-765.64"/>
</g>
<!-- 0x55907881b7f0 -->
<g id="node34" class="node">
<title>0x55907881b7f0</title>
<ellipse fill="black" stroke="black" cx="531" cy="-738" rx="27" ry="18"/>
<text text-anchor="middle" x="531" y="-734.3" font-family="Times,serif" font-size="14.00" fill="white">n</text>
</g>
<!-- 0x5590788182c0&#45;&gt;0x55907881b7f0 -->
<g id="edge33" class="edge">
<title>0x5590788182c0&#45;&gt;0x55907881b7f0</title>
<path fill="none" stroke="black" d="M441.81,-796.81C459,-785.67 484.62,-769.06 503.99,-756.5"/>
<polygon fill="black" stroke="black" points="505.92,-759.43 512.4,-751.05 502.11,-753.56 505.92,-759.43"/>
</g>
<!-- 0x55907881dc30 -->
<g id="node38" class="node">
<title>0x55907881dc30</title>
<ellipse fill="black" stroke="black" cx="603" cy="-738" rx="27" ry="18"/>
<text text-anchor="middle" x="603" y="-734.3" font-family="Times,serif" font-size="14.00" fill="white">s</text>
</g>
<!-- 0x5590788182c0&#45;&gt;0x55907881dc30 -->
<g id="edge37" class="edge">
<title>0x5590788182c0&#45;&gt;0x55907881dc30</title>
<path fill="none" stroke="black" d="M446.69,-801C475.44,-791.13 525.23,-773.51 567,-756 568.82,-755.24 570.68,-754.44 572.54,-753.61"/>
<polygon fill="black" stroke="black" points="574.17,-756.71 581.82,-749.38 571.27,-750.35 574.17,-756.71"/>
</g>
<!-- 0x55907881a220 -->
<g id="node3" class="node">
<title>0x55907881a220</title>
<ellipse fill="black" stroke="black" cx="144" cy="-666" rx="27" ry="18"/>
<text text-anchor="middle" x="144" y="-662.3" font-family="Times,serif" font-size="14.00" fill="white">p</text>
</g>
<!-- 0x55907881a050&#45;&gt;0x55907881a220 -->
<g id="edge2" class="edge">
<title>0x55907881a050&#45;&gt;0x55907881a220</title>
<path fill="none" stroke="black" d="M171.65,-720.76C167.29,-712.28 161.85,-701.71 156.96,-692.2"/>
<polygon fill="black" stroke="black" points="159.99,-690.44 152.3,-683.15 153.77,-693.64 159.99,-690.44"/>
</g>
<!-- 0x55907881a3f0 -->
<g id="node4" class="node">
<title>0x55907881a3f0</title>
<ellipse fill="black" stroke="black" cx="99" cy="-594" rx="27" ry="18"/>
<text text-anchor="middle" x="99" y="-590.3" font-family="Times,serif" font-size="14.00" fill="white">p</text>
</g>
<!-- 0x55907881a220&#45;&gt;0x55907881a3f0 -->
<g id="edge3" class="edge">
<title>0x55907881a220&#45;&gt;0x55907881a3f0</title>
<path fill="none" stroke="black" d="M133.79,-649.12C128.15,-640.34 121.03,-629.26 114.7,-619.42"/>
<polygon fill="black" stroke="black" points="117.52,-617.34 109.17,-610.82 111.63,-621.13 117.52,-617.34"/>
</g>
<!-- 0x55907881a5c0 -->
<g id="node5" class="node">
<title>0x55907881a5c0</title>
<ellipse fill="black" stroke="black" cx="99" cy="-522" rx="27" ry="18"/>
<text text-anchor="middle" x="99" y="-518.3" font-family="Times,serif" font-size="14.00" fill="white">l</text>
</g>
<!-- 0x55907881a3f0&#45;&gt;0x55907881a5c0 -->
<g id="edge4" class="edge">
<title>0x55907881a3f0&#45;&gt;0x55907881a5c0</title>
<path fill="none" stroke="black" d="M99,-575.7C99,-567.98 99,-558.71 99,-550.11"/>
<polygon fill="black" stroke="black" points="102.5,-550.1 99,-540.1 95.5,-550.1 102.5,-550.1"/>
</g>
<!-- 0x55907881b620 -->
<g id="node6" class="node">
<title>0x55907881b620</title>
<ellipse fill="green" stroke="black" cx="27" cy="-450" rx="27" ry="18"/>
<text text-anchor="middle" x="27" y="-446.3" font-family="Times,serif" font-size="14.00" fill="white">e</text>
</g>
<!-- 0x55907881a5c0&#45;&gt;0x55907881b620 -->
<g id="edge5" class="edge">
<title>0x55907881a5c0&#45;&gt;0x55907881b620</title>
<path fill="none" stroke="black" d="M84.43,-506.83C74.25,-496.94 60.48,-483.55 48.97,-472.36"/>
<polygon fill="black" stroke="black" points="51.41,-469.85 41.8,-465.38 46.53,-474.87 51.41,-469.85"/>
</g>
<!-- 0x55907881a790 -->
<g id="node7" class="node">
<title>0x55907881a790</title>
<ellipse fill="black" stroke="black" cx="99" cy="-450" rx="27" ry="18"/>
<text text-anchor="middle" x="99" y="-446.3" font-family="Times,serif" font-size="14.00" fill="white">i</text>
</g>
<!-- 0x55907881a5c0&#45;&gt;0x55907881a790 -->
<g id="edge6" class="edge">
<title>0x55907881a5c0&#45;&gt;0x55907881a790</title>
<path fill="none" stroke="black" d="M99,-503.7C99,-495.98 99,-486.71 99,-478.11"/>
<polygon fill="black" stroke="black" points="102.5,-478.1 99,-468.1 95.5,-478.1 102.5,-478.1"/>
</g>
<!-- 0x55907881a960 -->
<g id="node8" class="node">
<title>0x55907881a960</title>
<ellipse fill="black" stroke="black" cx="99" cy="-378" rx="27" ry="18"/>
<text text-anchor="middle" x="99" y="-374.3" font-family="Times,serif" font-size="14.00" fill="white">c</text>
</g>
<!-- 0x55907881a790&#45;&gt;0x55907881a960 -->
<g id="edge7" class="edge">
<title>0x55907881a790&#45;&gt;0x55907881a960</title>
<path fill="none" stroke="black" d="M99,-431.7C99,-423.98 99,-414.71 99,-406.11"/>
<polygon fill="black" stroke="black" points="102.5,-406.1 99,-396.1 95.5,-406.1 102.5,-406.1"/>
</g>
<!-- 0x55907881ab30 -->
<g id="node9" class="node">
<title>0x55907881ab30</title>
<ellipse fill="black" stroke="black" cx="99" cy="-306" rx="27" ry="18"/>
<text text-anchor="middle" x="99" y="-302.3" font-family="Times,serif" font-size="14.00" fill="white">a</text>
</g>
<!-- 0x55907881a960&#45;&gt;0x55907881ab30 -->
<g id="edge8" class="edge">
<title>0x55907881a960&#45;&gt;0x55907881ab30</title>
<path fill="none" stroke="black" d="M99,-359.7C99,-351.98 99,-342.71 99,-334.11"/>
<polygon fill="black" stroke="black" points="102.5,-334.1 99,-324.1 95.5,-334.1 102.5,-334.1"/>
</g>
<!-- 0x55907881ad00 -->
<g id="node10" class="node">
<title>0x55907881ad00</title>
<ellipse fill="black" stroke="black" cx="99" cy="-234" rx="27" ry="18"/>
<text text-anchor="middle" x="99" y="-230.3" font-family="Times,serif" font-size="14.00" fill="white">t</text>
</g>
<!-- 0x55907881ab30&#45;&gt;0x55907881ad00 -->
<g id="edge9" class="edge">
<title>0x55907881ab30&#45;&gt;0x55907881ad00</title>
<path fill="none" stroke="black" d="M99,-287.7C99,-279.98 99,-270.71 99,-262.11"/>
<polygon fill="black" stroke="black" points="102.5,-262.1 99,-252.1 95.5,-262.1 102.5,-262.1"/>
</g>
<!-- 0x55907881aed0 -->
<g id="node11" class="node">
<title>0x55907881aed0</title>
<ellipse fill="black" stroke="black" cx="99" cy="-162" rx="27" ry="18"/>
<text text-anchor="middle" x="99" y="-158.3" font-family="Times,serif" font-size="14.00" fill="white">i</text>
</g>
<!-- 0x55907881ad00&#45;&gt;0x55907881aed0 -->
<g id="edge10" class="edge">
<title>0x55907881ad00&#45;&gt;0x55907881aed0</title>
<path fill="none" stroke="black" d="M99,-215.7C99,-207.98 99,-198.71 99,-190.11"/>
<polygon fill="black" stroke="black" points="102.5,-190.1 99,-180.1 95.5,-190.1 102.5,-190.1"/>
</g>
<!-- 0x55907881b0a0 -->
<g id="node12" class="node">
<title>0x55907881b0a0</title>
<ellipse fill="black" stroke="black" cx="99" cy="-90" rx="27" ry="18"/>
<text text-anchor="middle" x="99" y="-86.3" font-family="Times,serif" font-size="14.00" fill="white">o</text>
</g>
<!-- 0x55907881aed0&#45;&gt;0x55907881b0a0 -->
<g id="edge11" class="edge">
<title>0x55907881aed0&#45;&gt;0x55907881b0a0</title>
<path fill="none" stroke="black" d="M99,-143.7C99,-135.98 99,-126.71 99,-118.11"/>
<polygon fill="black" stroke="black" points="102.5,-118.1 99,-108.1 95.5,-118.1 102.5,-118.1"/>
</g>
<!-- 0x55907881b270 -->
<g id="node13" class="node">
<title>0x55907881b270</title>
<ellipse fill="green" stroke="black" cx="99" cy="-18" rx="27" ry="18"/>
<text text-anchor="middle" x="99" y="-14.3" font-family="Times,serif" font-size="14.00" fill="white">n</text>
</g>
<!-- 0x55907881b0a0&#45;&gt;0x55907881b270 -->
<g id="edge12" class="edge">
<title>0x55907881b0a0&#45;&gt;0x55907881b270</title>
<path fill="none" stroke="black" d="M99,-71.7C99,-63.98 99,-54.71 99,-46.11"/>
<polygon fill="black" stroke="black" points="102.5,-46.1 99,-36.1 95.5,-46.1 102.5,-46.1"/>
</g>
<!-- 0x55907881cf80 -->
<g id="node15" class="node">
<title>0x55907881cf80</title>
<ellipse fill="black" stroke="black" cx="243" cy="-666" rx="27" ry="18"/>
<text text-anchor="middle" x="243" y="-662.3" font-family="Times,serif" font-size="14.00" fill="white">a</text>
</g>
<!-- 0x55907881cdb0&#45;&gt;0x55907881cf80 -->
<g id="edge14" class="edge">
<title>0x55907881cdb0&#45;&gt;0x55907881cf80</title>
<path fill="none" stroke="black" d="M263.6,-720.41C260.49,-712.34 256.67,-702.43 253.17,-693.35"/>
<polygon fill="black" stroke="black" points="256.4,-692.03 249.54,-683.96 249.87,-694.55 256.4,-692.03"/>
</g>
<!-- 0x55907881d4f0 -->
<g id="node16" class="node">
<title>0x55907881d4f0</title>
<ellipse fill="black" stroke="black" cx="171" cy="-594" rx="27" ry="18"/>
<text text-anchor="middle" x="171" y="-590.3" font-family="Times,serif" font-size="14.00" fill="white">n</text>
</g>
<!-- 0x55907881cf80&#45;&gt;0x55907881d4f0 -->
<g id="edge15" class="edge">
<title>0x55907881cf80&#45;&gt;0x55907881d4f0</title>
<path fill="none" stroke="black" d="M228.43,-650.83C218.25,-640.94 204.48,-627.55 192.97,-616.36"/>
<polygon fill="black" stroke="black" points="195.41,-613.85 185.8,-609.38 190.53,-618.87 195.41,-613.85"/>
</g>
<!-- 0x55907881d150 -->
<g id="node20" class="node">
<title>0x55907881d150</title>
<ellipse fill="black" stroke="black" cx="243" cy="-594" rx="27" ry="18"/>
<text text-anchor="middle" x="243" y="-590.3" font-family="Times,serif" font-size="14.00" fill="white">s</text>
</g>
<!-- 0x55907881cf80&#45;&gt;0x55907881d150 -->
<g id="edge19" class="edge">
<title>0x55907881cf80&#45;&gt;0x55907881d150</title>
<path fill="none" stroke="black" d="M243,-647.7C243,-639.98 243,-630.71 243,-622.11"/>
<polygon fill="black" stroke="black" points="246.5,-622.1 243,-612.1 239.5,-622.1 246.5,-622.1"/>
</g>
<!-- 0x55907881d6c0 -->
<g id="node17" class="node">
<title>0x55907881d6c0</title>
<ellipse fill="black" stroke="black" cx="171" cy="-522" rx="27" ry="18"/>
<text text-anchor="middle" x="171" y="-518.3" font-family="Times,serif" font-size="14.00" fill="white">a</text>
</g>
<!-- 0x55907881d4f0&#45;&gt;0x55907881d6c0 -->
<g id="edge16" class="edge">
<title>0x55907881d4f0&#45;&gt;0x55907881d6c0</title>
<path fill="none" stroke="black" d="M171,-575.7C171,-567.98 171,-558.71 171,-550.11"/>
<polygon fill="black" stroke="black" points="174.5,-550.1 171,-540.1 167.5,-550.1 174.5,-550.1"/>
</g>
<!-- 0x55907881d890 -->
<g id="node18" class="node">
<title>0x55907881d890</title>
<ellipse fill="black" stroke="black" cx="171" cy="-450" rx="27" ry="18"/>
<text text-anchor="middle" x="171" y="-446.3" font-family="Times,serif" font-size="14.00" fill="white">n</text>
</g>
<!-- 0x55907881d6c0&#45;&gt;0x55907881d890 -->
<g id="edge17" class="edge">
<title>0x55907881d6c0&#45;&gt;0x55907881d890</title>
<path fill="none" stroke="black" d="M171,-503.7C171,-495.98 171,-486.71 171,-478.11"/>
<polygon fill="black" stroke="black" points="174.5,-478.1 171,-468.1 167.5,-478.1 174.5,-478.1"/>
</g>
<!-- 0x55907881da60 -->
<g id="node19" class="node">
<title>0x55907881da60</title>
<ellipse fill="green" stroke="black" cx="171" cy="-378" rx="27" ry="18"/>
<text text-anchor="middle" x="171" y="-374.3" font-family="Times,serif" font-size="14.00" fill="white">a</text>
</g>
<!-- 0x55907881d890&#45;&gt;0x55907881da60 -->
<g id="edge18" class="edge">
<title>0x55907881d890&#45;&gt;0x55907881da60</title>
<path fill="none" stroke="black" d="M171,-431.7C171,-423.98 171,-414.71 171,-406.11"/>
<polygon fill="black" stroke="black" points="174.5,-406.1 171,-396.1 167.5,-406.1 174.5,-406.1"/>
</g>
<!-- 0x55907881d320 -->
<g id="node21" class="node">
<title>0x55907881d320</title>
<ellipse fill="green" stroke="black" cx="243" cy="-522" rx="27" ry="18"/>
<text text-anchor="middle" x="243" y="-518.3" font-family="Times,serif" font-size="14.00" fill="white">e</text>
</g>
<!-- 0x55907881d150&#45;&gt;0x55907881d320 -->
<g id="edge20" class="edge">
<title>0x55907881d150&#45;&gt;0x55907881d320</title>
<path fill="none" stroke="black" d="M243,-575.7C243,-567.98 243,-558.71 243,-550.11"/>
<polygon fill="black" stroke="black" points="246.5,-550.1 243,-540.1 239.5,-550.1 246.5,-550.1"/>
</g>
<!-- 0x55907881c100 -->
<g id="node23" class="node">
<title>0x55907881c100</title>
<ellipse fill="black" stroke="black" cx="387" cy="-666" rx="27" ry="18"/>
<text text-anchor="middle" x="387" y="-662.3" font-family="Times,serif" font-size="14.00" fill="white">e</text>
</g>
<!-- 0x55907881bf30&#45;&gt;0x55907881c100 -->
<g id="edge22" class="edge">
<title>0x55907881bf30&#45;&gt;0x55907881c100</title>
<path fill="none" stroke="black" d="M387,-719.7C387,-711.98 387,-702.71 387,-694.11"/>
<polygon fill="black" stroke="black" points="390.5,-694.1 387,-684.1 383.5,-694.1 390.5,-694.1"/>
</g>
<!-- 0x55907881c2d0 -->
<g id="node24" class="node">
<title>0x55907881c2d0</title>
<ellipse fill="black" stroke="black" cx="387" cy="-594" rx="27" ry="18"/>
<text text-anchor="middle" x="387" y="-590.3" font-family="Times,serif" font-size="14.00" fill="white">e</text>
</g>
<!-- 0x55907881c100&#45;&gt;0x55907881c2d0 -->
<g id="edge23" class="edge">
<title>0x55907881c100&#45;&gt;0x55907881c2d0</title>
<path fill="none" stroke="black" d="M387,-647.7C387,-639.98 387,-630.71 387,-622.11"/>
<polygon fill="black" stroke="black" points="390.5,-622.1 387,-612.1 383.5,-622.1 390.5,-622.1"/>
</g>
<!-- 0x55907881c4a0 -->
<g id="node25" class="node">
<title>0x55907881c4a0</title>
<ellipse fill="green" stroke="black" cx="315" cy="-522" rx="27" ry="18"/>
<text text-anchor="middle" x="315" y="-518.3" font-family="Times,serif" font-size="14.00" fill="white">d</text>
</g>
<!-- 0x55907881c2d0&#45;&gt;0x55907881c4a0 -->
<g id="edge24" class="edge">
<title>0x55907881c2d0&#45;&gt;0x55907881c4a0</title>
<path fill="none" stroke="black" d="M372.43,-578.83C362.25,-568.94 348.48,-555.55 336.97,-544.36"/>
<polygon fill="black" stroke="black" points="339.41,-541.85 329.8,-537.38 334.53,-546.87 339.41,-541.85"/>
</g>
<!-- 0x55907881c670 -->
<g id="node26" class="node">
<title>0x55907881c670</title>
<ellipse fill="black" stroke="black" cx="387" cy="-522" rx="27" ry="18"/>
<text text-anchor="middle" x="387" y="-518.3" font-family="Times,serif" font-size="14.00" fill="white">l</text>
</g>
<!-- 0x55907881c2d0&#45;&gt;0x55907881c670 -->
<g id="edge25" class="edge">
<title>0x55907881c2d0&#45;&gt;0x55907881c670</title>
<path fill="none" stroke="black" d="M387,-575.7C387,-567.98 387,-558.71 387,-550.11"/>
<polygon fill="black" stroke="black" points="390.5,-550.1 387,-540.1 383.5,-550.1 390.5,-550.1"/>
</g>
<!-- 0x55907881c840 -->
<g id="node27" class="node">
<title>0x55907881c840</title>
<ellipse fill="black" stroke="black" cx="387" cy="-450" rx="27" ry="18"/>
<text text-anchor="middle" x="387" y="-446.3" font-family="Times,serif" font-size="14.00" fill="white">i</text>
</g>
<!-- 0x55907881c670&#45;&gt;0x55907881c840 -->
<g id="edge26" class="edge">
<title>0x55907881c670&#45;&gt;0x55907881c840</title>
<path fill="none" stroke="black" d="M387,-503.7C387,-495.98 387,-486.71 387,-478.11"/>
<polygon fill="black" stroke="black" points="390.5,-478.1 387,-468.1 383.5,-478.1 390.5,-478.1"/>
</g>
<!-- 0x55907881ca10 -->
<g id="node28" class="node">
<title>0x55907881ca10</title>
<ellipse fill="black" stroke="black" cx="387" cy="-378" rx="27" ry="18"/>
<text text-anchor="middle" x="387" y="-374.3" font-family="Times,serif" font-size="14.00" fill="white">n</text>
</g>
<!-- 0x55907881c840&#45;&gt;0x55907881ca10 -->
<g id="edge27" class="edge">
<title>0x55907881c840&#45;&gt;0x55907881ca10</title>
<path fill="none" stroke="black" d="M387,-431.7C387,-423.98 387,-414.71 387,-406.11"/>
<polygon fill="black" stroke="black" points="390.5,-406.1 387,-396.1 383.5,-406.1 390.5,-406.1"/>
</g>
<!-- 0x55907881cbe0 -->
<g id="node29" class="node">
<title>0x55907881cbe0</title>
<ellipse fill="green" stroke="black" cx="387" cy="-306" rx="27" ry="18"/>
<text text-anchor="middle" x="387" y="-302.3" font-family="Times,serif" font-size="14.00" fill="white">g</text>
</g>
<!-- 0x55907881ca10&#45;&gt;0x55907881cbe0 -->
<g id="edge28" class="edge">
<title>0x55907881ca10&#45;&gt;0x55907881cbe0</title>
<path fill="none" stroke="black" d="M387,-359.7C387,-351.98 387,-342.71 387,-334.11"/>
<polygon fill="black" stroke="black" points="390.5,-334.1 387,-324.1 383.5,-334.1 390.5,-334.1"/>
</g>
<!-- 0x55907881e710 -->
<g id="node31" class="node">
<title>0x55907881e710</title>
<ellipse fill="black" stroke="black" cx="459" cy="-666" rx="27" ry="18"/>
<text text-anchor="middle" x="459" y="-662.3" font-family="Times,serif" font-size="14.00" fill="white">e</text>
</g>
<!-- 0x55907881e540&#45;&gt;0x55907881e710 -->
<g id="edge30" class="edge">
<title>0x55907881e540&#45;&gt;0x55907881e710</title>
<path fill="none" stroke="black" d="M459,-719.7C459,-711.98 459,-702.71 459,-694.11"/>
<polygon fill="black" stroke="black" points="462.5,-694.1 459,-684.1 455.5,-694.1 462.5,-694.1"/>
</g>
<!-- 0x55907881e8e0 -->
<g id="node32" class="node">
<title>0x55907881e8e0</title>
<ellipse fill="black" stroke="black" cx="459" cy="-594" rx="27" ry="18"/>
<text text-anchor="middle" x="459" y="-590.3" font-family="Times,serif" font-size="14.00" fill="white">a</text>
</g>
<!-- 0x55907881e710&#45;&gt;0x55907881e8e0 -->
<g id="edge31" class="edge">
<title>0x55907881e710&#45;&gt;0x55907881e8e0</title>
<path fill="none" stroke="black" d="M459,-647.7C459,-639.98 459,-630.71 459,-622.11"/>
<polygon fill="black" stroke="black" points="462.5,-622.1 459,-612.1 455.5,-622.1 462.5,-622.1"/>
</g>
<!-- 0x55907881eab0 -->
<g id="node33" class="node">
<title>0x55907881eab0</title>
<ellipse fill="green" stroke="black" cx="459" cy="-522" rx="27" ry="18"/>
<text text-anchor="middle" x="459" y="-518.3" font-family="Times,serif" font-size="14.00" fill="white">p</text>
</g>
<!-- 0x55907881e8e0&#45;&gt;0x55907881eab0 -->
<g id="edge32" class="edge">
<title>0x55907881e8e0&#45;&gt;0x55907881eab0</title>
<path fill="none" stroke="black" d="M459,-575.7C459,-567.98 459,-558.71 459,-550.11"/>
<polygon fill="black" stroke="black" points="462.5,-550.1 459,-540.1 455.5,-550.1 462.5,-550.1"/>
</g>
<!-- 0x55907881b9c0 -->
<g id="node35" class="node">
<title>0x55907881b9c0</title>
<ellipse fill="black" stroke="black" cx="531" cy="-666" rx="27" ry="18"/>
<text text-anchor="middle" x="531" y="-662.3" font-family="Times,serif" font-size="14.00" fill="white">e</text>
</g>
<!-- 0x55907881b7f0&#45;&gt;0x55907881b9c0 -->
<g id="edge34" class="edge">
<title>0x55907881b7f0&#45;&gt;0x55907881b9c0</title>
<path fill="none" stroke="black" d="M531,-719.7C531,-711.98 531,-702.71 531,-694.11"/>
<polygon fill="black" stroke="black" points="534.5,-694.1 531,-684.1 527.5,-694.1 534.5,-694.1"/>
</g>
<!-- 0x55907881bb90 -->
<g id="node36" class="node">
<title>0x55907881bb90</title>
<ellipse fill="green" stroke="black" cx="531" cy="-594" rx="27" ry="18"/>
<text text-anchor="middle" x="531" y="-590.3" font-family="Times,serif" font-size="14.00" fill="white">w</text>
</g>
<!-- 0x55907881b9c0&#45;&gt;0x55907881bb90 -->
<g id="edge35" class="edge">
<title>0x55907881b9c0&#45;&gt;0x55907881bb90</title>
<path fill="none" stroke="black" d="M531,-647.7C531,-639.98 531,-630.71 531,-622.11"/>
<polygon fill="black" stroke="black" points="534.5,-622.1 531,-612.1 527.5,-622.1 534.5,-622.1"/>
</g>
<!-- 0x55907881bd60 -->
<g id="node37" class="node">
<title>0x55907881bd60</title>
<ellipse fill="green" stroke="black" cx="531" cy="-522" rx="27" ry="18"/>
<text text-anchor="middle" x="531" y="-518.3" font-family="Times,serif" font-size="14.00" fill="white">s</text>
</g>
<!-- 0x55907881bb90&#45;&gt;0x55907881bd60 -->
<g id="edge36" class="edge">
<title>0x55907881bb90&#45;&gt;0x55907881bd60</title>
<path fill="none" stroke="black" d="M531,-575.7C531,-567.98 531,-558.71 531,-550.11"/>
<polygon fill="black" stroke="black" points="534.5,-550.1 531,-540.1 527.5,-550.1 534.5,-550.1"/>
</g>
<!-- 0x55907881de00 -->
<g id="node39" class="node">
<title>0x55907881de00</title>
<ellipse fill="black" stroke="black" cx="603" cy="-666" rx="27" ry="18"/>
<text text-anchor="middle" x="603" y="-662.3" font-family="Times,serif" font-size="14.00" fill="white">t</text>
</g>
<!-- 0x55907881dc30&#45;&gt;0x55907881de00 -->
<g id="edge38" class="edge">
<title>0x55907881dc30&#45;&gt;0x55907881de00</title>
<path fill="none" stroke="black" d="M603,-719.7C603,-711.98 603,-702.71 603,-694.11"/>
<polygon fill="black" stroke="black" points="606.5,-694.1 603,-684.1 599.5,-694.1 606.5,-694.1"/>
</g>
<!-- 0x55907881dfd0 -->
<g id="node40" class="node">
<title>0x55907881dfd0</title>
<ellipse fill="black" stroke="black" cx="603" cy="-594" rx="27" ry="18"/>
<text text-anchor="middle" x="603" y="-590.3" font-family="Times,serif" font-size="14.00" fill="white">a</text>
</g>
<!-- 0x55907881de00&#45;&gt;0x55907881dfd0 -->
<g id="edge39" class="edge">
<title>0x55907881de00&#45;&gt;0x55907881dfd0</title>
<path fill="none" stroke="black" d="M603,-647.7C603,-639.98 603,-630.71 603,-622.11"/>
<polygon fill="black" stroke="black" points="606.5,-622.1 603,-612.1 599.5,-622.1 606.5,-622.1"/>
</g>
<!-- 0x55907881e1a0 -->
<g id="node41" class="node">
<title>0x55907881e1a0</title>
<ellipse fill="black" stroke="black" cx="603" cy="-522" rx="27" ry="18"/>
<text text-anchor="middle" x="603" y="-518.3" font-family="Times,serif" font-size="14.00" fill="white">c</text>
</g>
<!-- 0x55907881dfd0&#45;&gt;0x55907881e1a0 -->
<g id="edge40" class="edge">
<title>0x55907881dfd0&#45;&gt;0x55907881e1a0</title>
<path fill="none" stroke="black" d="M603,-575.7C603,-567.98 603,-558.71 603,-550.11"/>
<polygon fill="black" stroke="black" points="606.5,-550.1 603,-540.1 599.5,-550.1 606.5,-550.1"/>
</g>
<!-- 0x55907881e370 -->
<g id="node42" class="node">
<title>0x55907881e370</title>
<ellipse fill="green" stroke="black" cx="603" cy="-450" rx="27" ry="18"/>
<text text-anchor="middle" x="603" y="-446.3" font-family="Times,serif" font-size="14.00" fill="white">k</text>
</g>
<!-- 0x55907881e1a0&#45;&gt;0x55907881e370 -->
<g id="edge41" class="edge">
<title>0x55907881e1a0&#45;&gt;0x55907881e370</title>
<path fill="none" stroke="black" d="M603,-503.7C603,-495.98 603,-486.71 603,-478.11"/>
<polygon fill="black" stroke="black" points="606.5,-478.1 603,-468.1 599.5,-478.1 606.5,-478.1"/>
</g>
</g>
</svg>
